<svg width="20" height="20" viewBox="0 0 20 20" fill="none" xmlns="http://www.w3.org/2000/svg">
  <path d="M9.40463 6.00003C9.40463 5.81417 9.40463 5.72124 9.42 5.64396C9.48313 5.32661 9.73121 5.07853 10.0486 5.0154C10.1258 5.00003 10.2188 5.00003 10.4046 5.00003C10.5905 5.00003 10.6834 5.00003 10.7607 5.0154C11.0781 5.07853 11.3261 5.32661 11.3893 5.64396C11.4046 5.72124 11.4046 5.81417 11.4046 6.00003C11.4046 6.18589 11.4046 6.27882 11.3893 6.3561C11.3261 6.67346 11.0781 6.92153 10.7607 6.98466C10.6834 7.00003 10.5905 7.00003 10.4046 7.00003C10.2188 7.00003 10.1258 7.00003 10.0486 6.98466C9.73121 6.92153 9.48313 6.67346 9.42 6.3561C9.40463 6.27882 9.40463 6.18589 9.40463 6.00003Z" fill="#C8C9CC"/>
  <path d="M8.94242 8.22587L7.53588 13.7394C7.38529 14.225 7.53774 14.397 7.75526 14.6425L7.75758 14.6451C7.77199 14.6614 7.78603 14.6774 7.79985 14.6932C7.99581 14.9176 8.14571 15.0892 8.63006 14.9742L11.8165 14.4362C11.9231 14.4182 11.9961 14.3187 11.9813 14.2116L11.7755 12.7215C11.7602 12.6112 11.6578 12.5346 11.5477 12.5511L9.83012 12.8086L10.9399 8.24731C10.9705 8.12139 10.8751 8.00003 10.7455 8.00003H9.23311C9.09599 8.00003 8.97632 8.09301 8.94242 8.22587Z" fill="#C8C9CC"/>
  <path fill-rule="evenodd" clip-rule="evenodd" d="M9.82501 1.00002H10.1751C11.8674 0.999748 12.9199 0.99958 13.8118 1.23856C16.2274 1.88583 18.1142 3.77266 18.7615 6.1883C19.0005 7.08017 19.0003 8.13265 19.0001 9.82502V10.1751C19.0003 11.8674 19.0005 12.9199 18.7615 13.8118C18.1142 16.2274 16.2274 18.1142 13.8118 18.7615C12.9199 19.0005 11.8674 19.0003 10.1751 19.0001H9.82502C8.13265 19.0003 7.08017 19.0005 6.1883 18.7615C3.77266 18.1142 1.88583 16.2274 1.23856 13.8118C0.99958 12.9199 0.999748 11.8674 1.00002 10.1751V9.82501C0.999748 8.13265 0.99958 7.08017 1.23856 6.1883C1.88583 3.77266 3.77266 1.88583 6.1883 1.23856C7.08017 0.99958 8.13265 0.999748 9.82501 1.00002ZM10 3.00004C8.07571 3.00004 7.30972 3.00863 6.70594 3.17041C4.98048 3.63274 3.63274 4.98048 3.17041 6.70594C3.00863 7.30972 3.00004 8.07571 3.00004 10C3.00004 11.9244 3.00863 12.6904 3.17041 13.2941C3.63274 15.0196 4.98048 16.3673 6.70594 16.8297C7.30972 16.9914 8.07571 17 10 17C11.9244 17 12.6904 16.9914 13.2941 16.8297C15.0196 16.3673 16.3673 15.0196 16.8297 13.2941C16.9914 12.6904 17 11.9244 17 10C17 8.07571 16.9914 7.30972 16.8297 6.70594C16.3673 4.98048 15.0196 3.63274 13.2941 3.17041C12.6904 3.00863 11.9244 3.00004 10 3.00004Z" fill="#C8C9CC"/>
</svg>
